<svg xmlns="http://www.w3.org/2000/svg" xmlns:xlink="http://www.w3.org/1999/xlink" version="1.1" id="Your_Icon" x="0px" y="0px" width="100px" height="100px" viewBox="5.0 -10.0 100.0 135.0" enable-background="new 0 0 100 100" xml:space="preserve">
<path fill="#FFFFFF" d="M97,75.999c0,0,0,0.312,0,0.545c0,10.756-8.001,19.554-18.001,21.36v0.246c0,1.021-0.562,1.849-1.584,1.849  h-5.444c-1.021,0-1.972-0.828-1.972-1.849V54.646c0-1.021,0.951-1.646,1.972-1.646h5.444c1.021,0,1.584,0.627,1.584,1.646v0.244  c5,0.889,10,3.5,13,7.199V47.265c-1.187,0-2.101-0.657-2.101-1.839c0,0-0.025-0.208-0.035-0.315  c-0.264-3.087-1.153-9.084-3.79-15.369c-2.976,1.513-6.685,0.511-8.457-2.383c-3.669-5.983-9.361-10.079-16.888-12.172  c-5.703-1.585-10.277-1.339-10.327-1.337H50.21h-0.187c-9.266,0-16.863,2.578-22.582,7.543c-3.863,3.349-5.45,6.651-5.464,6.683  c-1.053,2.448-3.436,3.893-5.94,3.893c-0.85,0-1.716-0.181-2.549-0.54c-0.05-0.02-0.221-0.049-0.27-0.071  c-2.132,5.67-3.21,10.91-3.21,13.736v0.005c0,0.113,0.001,0.198,0,0.202c0,1.058-0.822,1.698-1.881,1.698H8v15.092  c3-3.7,8-6.312,13-7.2v-0.244C21,53.626,21.564,53,22.583,53h5.445C29.048,53,30,53.627,30,54.646v43.508  c0,1.019-0.951,1.847-1.971,1.847h-5.445C21.564,99.999,21,99.171,21,98.15v-0.246C11,96.098,3,87.3,3,76.544  c0-0.231,0-0.545,0-0.545V47.256c0-0.549-0.046-11.929,5.707-23.431c5.435-10.867,16.898-23.82,41.284-23.826h0.018  c24.386,0.006,35.851,12.959,41.284,23.826C97.047,35.327,97,46.707,97,47.256V75.999L97,75.999z"/>
<text x="0.0" y="117.5" font-size="5.0" font-weight="bold" font-family="Helvetica Neue, Helvetica, Arial-Unicode, Arial, Sans-serif" fill="#000000">Created by Sabine Wollender</text><text x="0.0" y="122.5" font-size="5.0" font-weight="bold" font-family="Helvetica Neue, Helvetica, Arial-Unicode, Arial, Sans-serif" fill="#000000">from the Noun Project</text></svg>