<?xml version="1.0" encoding="UTF-8" standalone="no"?>
<svg id="Your_Icon" xmlns:rdf="http://www.w3.org/1999/02/22-rdf-syntax-ns#" xmlns="http://www.w3.org/2000/svg" enable-background="new 0 0 100 100" xml:space="preserve" height="100px" viewBox="5.0 -10.0 100.0 135.0" width="100px" version="1.1" y="0px" x="0px" xmlns:cc="http://creativecommons.org/ns#" xmlns:dc="http://purl.org/dc/elements/1.1/"><metadata id="metadata13"><rdf:RDF><cc:Work rdf:about=""><dc:format>image/svg+xml</dc:format><dc:type rdf:resource="http://purl.org/dc/dcmitype/StillImage"/><dc:title/></cc:Work></rdf:RDF></metadata><path id="path3" fill="#fff" d="m98.679 75.999v0.545c0 10.756-8.001 19.554-18.001 21.36v0.246c0 1.021-0.562 1.849-1.584 1.849h-5.444c-1.021 0-1.972-0.828-1.972-1.849v-43.504c0-1.021 0.951-1.646 1.972-1.646h5.444c1.021 0 1.584 0.627 1.584 1.646v0.244c5 0.889 10 3.5 13 7.199v-14.824c-1.187 0-2.101-0.657-2.101-1.839 0 0-0.025-0.208-0.035-0.315-0.264-3.087-1.153-9.084-3.79-15.369-2.976 1.513-6.685 0.511-8.457-2.383-3.669-5.983-9.361-10.079-16.888-12.172-5.703-1.585-10.277-1.339-10.327-1.337h-0.191-0.187c-9.266 0-16.863 2.578-22.582 7.543-3.863 3.349-5.45 6.651-5.464 6.683-1.053 2.448-3.436 3.893-5.94 3.893-0.85 0-1.716-0.181-2.549-0.54-0.05-0.02-0.221-0.049-0.27-0.071-2.132 5.67-3.21 10.91-3.21 13.736v0.005c0 0.113 0.001 0.198 0 0.202 0 1.058-0.822 1.698-1.881 1.698h-0.127v15.092c3-3.7 8-6.312 13-7.2v-0.244c0-1.021 0.564-1.647 1.583-1.647h5.445c1.02 0 1.972 0.627 1.972 1.646v43.508c0 1.019-0.951 1.847-1.971 1.847h-5.445c-1.02-0.002-1.584-0.83-1.584-1.851v-0.246c-10-1.806-18-10.604-18-21.36v-0.545-28.743c0-0.549-0.046-11.929 5.707-23.431 5.435-10.867 16.898-23.82 41.284-23.826h0.018c24.386 0.006 35.851 12.959 41.284 23.826 5.754 11.502 5.707 22.882 5.707 23.431v28.743z"/><text id="text5" font-size="5" font-family="Helvetica Neue, Helvetica, Arial-Unicode, Arial, Sans-serif" y="117.5" x="0.0" font-weight="bold" fill="#000000">Created by Sabine Wollender</text>
<text id="text7" font-size="5" font-family="Helvetica Neue, Helvetica, Arial-Unicode, Arial, Sans-serif" y="122.5" x="0.0" font-weight="bold" fill="#000000">from the Noun Project</text>
</svg>
