<svg xmlns="http://www.w3.org/2000/svg" xmlns:xlink="http://www.w3.org/1999/xlink" version="1.1" id="Your_Icon" x="0px" y="0px" width="100px" height="100px" viewBox="5.0 -10.0 100.0 135.0" enable-background="new 0 0 100 100" xml:space="preserve">
<circle fill="#FFFFFF" cx="30" cy="60" r="3"/>
<circle fill="#FFFFFF" cx="30" cy="50" r="3"/>
<circle fill="#FFFFFF" cx="20" cy="50" r="3"/>
<circle fill="#FFFFFF" cx="30" cy="40" r="3"/>
<circle fill="#FFFFFF" cx="40" cy="60" r="3"/>
<circle fill="#FFFFFF" cx="40" cy="50" r="3"/>
<circle fill="#FFFFFF" cx="40" cy="40" r="3"/>
<circle fill="#FFFFFF" cx="40" cy="70" r="3"/>
<circle fill="#FFFFFF" cx="40" cy="30" r="3"/>
<circle fill="#FFFFFF" cx="70" cy="60" r="3"/>
<circle fill="#FFFFFF" cx="70" cy="50" r="3"/>
<circle fill="#FFFFFF" cx="60" cy="50" r="3"/>
<circle fill="#FFFFFF" cx="70" cy="40" r="3"/>
<circle fill="#FFFFFF" cx="80" cy="60" r="3"/>
<circle fill="#FFFFFF" cx="80" cy="50" r="3"/>
<circle fill="#FFFFFF" cx="80" cy="40" r="3"/>
<circle fill="#FFFFFF" cx="80" cy="70" r="3"/>
<circle fill="#FFFFFF" cx="80" cy="30" r="3"/>
<text x="0.0" y="117.5" font-size="5.0" font-weight="bold" font-family="Helvetica Neue, Helvetica, Arial-Unicode, Arial, Sans-serif" fill="#000000">Created by Diogo Trindade</text><text x="0.0" y="122.5" font-size="5.0" font-weight="bold" font-family="Helvetica Neue, Helvetica, Arial-Unicode, Arial, Sans-serif" fill="#000000">from the Noun Project</text></svg>